<svg 
    width="28" 
    height="41" 
    viewBox="0 0 28 41" 
    fill="none" 
    xmlns="http://www.w3.org/2000/svg"
>
  <path 
    d="M2 38.7061V34.7061C2 32.5843 2.84285 30.5495 4.34315 29.0492C5.84344 27.5489 7.87827 26.7061 10 26.7061H18C20.1217 26.7061 22.1566 27.5489 23.6569 29.0492C25.1571 30.5495 26 32.5843 26 34.7061V38.7061M6 10.7061C6 12.8278 6.84285 14.8626 8.34315 16.3629C9.84344 17.8632 11.8783 18.7061 14 18.7061C16.1217 18.7061 18.1566 17.8632 19.6569 16.3629C21.1571 14.8626 22 12.8278 22 10.7061C22 8.58432 21.1571 6.54949 19.6569 5.0492C18.1566 3.54891 16.1217 2.70605 14 2.70605C11.8783 2.70605 9.84344 3.54891 8.34315 5.0492C6.84285 6.54949 6 8.58432 6 10.7061Z" 
    stroke="currentColor" 
    stroke-width="4" 
    stroke-miterlimit="1.30541" 
    stroke-linecap="round" 
    stroke-linejoin="round"
  />
</svg>