<svg width="86" height="91" viewBox="0 0 86 91" fill="none" xmlns="http://www.w3.org/2000/svg">
  <g clip-path="url(#clip0_98_185)">
    <path d="M61.148 2.45532C62.1498 3.36565 62.6604 4.59392 63.682 7.05048L86 60.7161C77.617 57.5316 68.6195 55.3018 59.3178 54.1035L44.7865 18.1588C44.6706 17.8722 44.431 17.6206 44.1036 17.4419C43.7761 17.2632 43.3784 17.1669 42.97 17.1673C42.5615 17.1678 42.1643 17.265 41.8376 17.4445C41.5109 17.624 41.2724 17.8761 41.1577 18.163L26.8024 54.0856C17.4587 55.2782 8.41977 57.5114 0 60.7077L22.4272 7.03794C23.4521 4.58581 23.9648 3.3595 24.9665 2.45089C25.8509 1.64881 27.0012 1.0259 28.3078 0.641547C29.7876 0.206055 31.5395 0.206055 35.043 0.206055H51.0615C54.5697 0.206055 56.3236 0.206055 57.8051 0.642284C59.1127 1.02757 60.2635 1.65178 61.1477 2.45532H61.148Z" fill="white"/>
    <path d="M63.8187 63.0935C60.1395 65.3962 52.796 66.9667 44.337 66.9667C33.9552 66.9667 25.2534 64.6009 22.9445 61.4192C22.1188 63.2426 21.9337 65.3298 21.9337 66.6628C21.9337 66.6628 21.3898 73.2094 27.6104 77.7628C27.6104 75.3984 30.229 73.4816 33.4591 73.4816C38.9953 73.4816 38.9886 77.0172 38.9839 79.8857L38.9835 80.1416C38.9835 84.4953 42.6184 88.2276 47.7885 89.8007C46.9927 88.6018 46.5805 87.2859 46.5831 85.953C46.5831 81.8007 49.9133 80.2548 53.7839 78.458C56.8635 77.0283 60.2853 75.4398 62.6433 72.2534C63.9133 70.5368 64.5764 68.6149 64.5722 66.6628C64.5722 65.4185 64.3082 64.2193 63.8187 63.0935Z" fill="#FF5D01"/>
  </g>
  <defs>
    <clipPath id="clip0_98_185">
      <rect width="86" height="90" fill="white" transform="translate(0 0.206055)"/>
    </clipPath>
  </defs>
</svg>