<svg 
    width="86" 
    height="91" 
    viewBox="0 0 86 91" 
    fill="none" 
    xmlns="http://www.w3.org/2000/svg"
>
  <g clip-path="url(#clip0_98_188)">
    <path d="M85.6182 26.8484C85.6182 25.35 85.2713 24.0254 84.5742 22.8899C83.8348 21.719 82.7704 20.7546 81.4924 20.0979C70.1425 14.005 58.7792 7.9401 47.4393 1.84723C44.3808 0.20303 41.4158 0.265076 38.3807 1.931C33.8647 4.40661 11.2482 16.4589 4.51095 20.0886C1.73266 21.5901 0.385211 23.8765 0.37854 26.8453V63.5669C0.37854 65.0312 0.712068 66.3279 1.37579 67.4479C2.05952 68.6019 3.10012 69.5636 4.50428 70.3206C11.2449 73.9502 33.8614 86.0025 38.3773 88.4782C41.4158 90.1472 44.3808 90.2061 47.4393 88.5619C58.7859 82.4691 70.1458 76.401 81.4924 70.3175C82.8016 69.6477 83.8865 68.6546 84.6276 67.4479C85.2913 66.3279 85.6215 65.0281 85.6215 63.5638L85.6182 26.8484Z" fill="#A179DC"/>
    <path d="M43.1301 45.0867L1.37244 67.4509C2.0595 68.5988 3.10011 69.5605 4.5076 70.3205C11.2449 73.9502 33.8614 86.0025 38.3773 88.4781C41.4158 90.1472 44.3808 90.2061 47.4393 88.5619C58.7859 82.469 70.1458 76.401 81.4924 70.3174C82.8016 69.6476 83.8865 68.6546 84.6276 67.4478L43.1301 45.0867Z" fill="#280068"/>
    <path d="M85.6181 26.8484C85.6181 25.35 85.2713 24.0253 84.5742 22.8899L43.1301 45.0866L84.6242 67.4447C85.2913 66.3279 85.6215 65.028 85.6248 63.5638C85.6248 63.5638 85.6248 39.0869 85.6181 26.8484Z" fill="#390091"/>
    <path d="M67.7177 36.7291V40.9079H72.2104V36.726H74.455V40.9079H78.951V42.9957H74.455V47.1776H78.951V49.2685H74.455V53.4473H72.2104V49.2623H67.7144V53.4441H65.4698V49.2623H60.9738V47.1745H65.4664V42.9957H60.9738V40.9048H65.4664V36.7229L67.7177 36.7291ZM72.2104 42.9957H67.7144V47.1776H72.2104V42.9957Z" fill="white"/>
    <path d="M43.2235 15.7361C48.7833 15.7339 54.2458 17.0932 59.0618 19.6771C63.8779 22.2611 67.8778 25.9787 70.6594 30.4564L70.6061 30.3726L56.8147 37.756C55.4368 35.5802 53.4782 33.7722 51.1287 32.5069C48.7792 31.2417 46.1183 30.5621 43.4036 30.5339H43.2235C39.0394 30.5339 35.0268 32.0799 32.0682 34.8318C29.1097 37.5836 27.4476 41.316 27.4476 45.2077C27.4438 47.7619 28.1603 50.2724 29.5255 52.4887C30.9082 54.7435 32.9096 56.6166 35.3251 57.9167C37.7407 59.2168 40.4839 59.8973 43.2747 59.8888C46.0655 59.8803 48.8039 59.183 51.2102 57.8682C53.6166 56.5534 55.6046 54.6681 56.9715 52.4049L56.9048 52.5135L70.6761 59.931C67.9267 64.368 63.9815 68.0617 59.2294 70.6479C54.4772 73.2342 49.0825 74.6236 43.577 74.6793H43.2235C39.062 74.6809 34.941 73.9197 31.096 72.4392C27.251 70.9587 23.7574 68.7879 20.8148 66.0509C17.8722 63.3138 15.5384 60.0643 13.9466 56.4879C12.3549 52.9115 11.5366 49.0784 11.5383 45.2077C11.5383 37.3913 14.8766 29.8951 20.8187 24.3681C26.7608 18.8411 34.82 15.7361 43.2235 15.7361Z" fill="white"/>
  </g>
  <defs>
    <clipPath id="clip0_98_188">
      <rect width="86" height="90" fill="white" transform="translate(0 0.206055)"/>
    </clipPath>
  </defs>
</svg>