<svg width="86" height="91" viewBox="0 0 86 91" fill="none" xmlns="http://www.w3.org/2000/svg">
  <g clip-path="url(#clip0_98_218)">
    <path d="M0 0.206055H72.24C75.8894 0.206055 79.3893 1.72319 81.9698 4.42372C84.5503 7.12424 86 10.7869 86 14.6061V75.8061C86 79.6252 84.5503 83.2879 81.9698 85.9884C79.3893 88.6889 75.8894 90.2061 72.24 90.2061H13.76C10.1106 90.2061 6.61071 88.6889 4.03021 85.9884C1.44971 83.2879 0 79.6252 0 75.8061L0 0.206055Z" fill="#663399"/>
    <path d="M70.2224 82.997C67.4369 82.997 65.3067 82.1492 63.8154 80.4455C62.3405 78.7328 61.5726 76.2893 61.5038 73.0979H67.5066C67.541 75.9203 68.4887 77.3351 70.3514 77.3351C71.3009 77.3351 71.9734 77.0201 72.3613 76.3973C72.7405 75.7763 72.9392 74.7836 72.9392 73.4228C72.9392 72.341 72.6803 71.4392 72.1798 70.7273C71.5006 69.8805 70.6288 69.2262 69.6445 68.8247L67.4197 67.706C65.4365 66.7142 63.996 65.5424 63.1077 64.1717C62.2451 62.81 61.8142 60.8993 61.8142 58.4567C61.8142 55.7243 62.5736 53.5067 64.082 51.8021C65.6343 50.0984 67.7474 49.2515 70.446 49.2515C73.0518 49.2515 75.0694 50.0894 76.4918 51.7571C77.9409 53.4347 78.6995 55.8323 78.7605 58.9697H72.9822C73.0166 57.9437 72.8188 56.9249 72.4043 55.9943C72.0775 55.3103 71.4385 54.9674 70.4899 54.9674C68.8 54.9674 67.9546 56.0213 67.9546 58.1219C67.9546 59.1866 68.161 60.0155 68.5755 60.6464C69.1726 61.3444 69.9208 61.8826 70.7574 62.216L72.8876 63.1988C75.0866 64.2536 76.6733 65.5433 77.6477 67.103C78.6307 68.6537 79.114 70.7273 79.114 73.3238C79.114 76.4342 78.3374 78.8228 76.7593 80.4905C75.1898 82.1582 73.008 82.997 70.2233 82.997H70.2224ZM50.8363 82.997C48.0499 82.997 45.9206 82.1492 44.4285 80.4455C42.9536 78.7328 42.1864 76.2893 42.1176 73.0979H48.1196C48.154 75.9203 49.1026 77.3351 50.9662 77.3351C51.9139 77.3351 52.5864 77.0201 52.9657 76.3973C53.3544 75.7763 53.5436 74.7836 53.5436 73.4228C53.5436 72.341 53.2942 71.4392 52.7937 70.7273C52.1145 69.8805 51.2427 69.2262 50.2584 68.8247L48.0336 67.706C46.0496 66.7142 44.6099 65.5424 43.7215 64.1717C42.859 62.81 42.4281 60.8993 42.4281 58.4567C42.4281 55.7243 43.1866 53.5067 44.6959 51.8021C46.2482 50.0984 48.3612 49.2515 51.0599 49.2515C53.6649 49.2515 55.6824 50.0894 57.0971 51.7571C58.5634 53.4347 59.3133 55.8323 59.3735 58.9697H53.5961C53.6305 57.9437 53.4327 56.9249 53.0181 55.9943C52.6905 55.3103 52.0524 54.9674 51.1038 54.9674C49.413 54.9674 48.5676 56.0213 48.5676 58.1219C48.5676 59.1866 48.7749 60.0155 49.1886 60.6464C49.7856 61.3444 50.5338 61.8826 51.3704 62.216L53.5006 63.1988C55.6996 64.2536 57.2863 65.5433 58.2616 67.103C59.2359 68.6537 59.727 70.7273 59.727 73.3238C59.727 76.4342 58.9427 78.8228 57.3732 80.4905C55.8037 82.1582 53.6219 82.997 50.8363 82.997ZM30.6478 82.997C27.9216 82.997 25.7579 82.2212 24.154 80.6705C22.5501 79.1297 21.7563 76.8122 21.7563 73.7468V58.6007C21.7563 55.5542 22.6017 53.2457 24.2916 51.659C26.0081 50.0903 28.2587 49.2974 31.0443 49.2974C33.7438 49.2974 35.8732 50.1083 37.4513 51.713C39.0474 53.3267 39.849 55.7252 39.849 58.9256V60.1244H33.4936V58.9616C33.4936 57.7268 33.2347 56.816 32.7342 56.2211C32.5156 55.9236 32.2329 55.6844 31.9092 55.523C31.5855 55.3616 31.2299 55.2825 30.8714 55.2923C29.8368 55.2923 29.1041 55.6613 28.6896 56.4101C28.2484 57.4459 28.0503 58.5772 28.1117 59.7095V72.8729C28.1117 75.6224 29.0353 77.0201 30.8723 77.0471C31.734 77.0471 32.3807 76.7222 32.8296 76.0733C33.3172 75.2536 33.5492 74.2956 33.4936 73.3319V72.35H39.849V73.3778C39.849 75.5144 39.4525 77.2991 38.6501 78.7238C37.8874 80.1142 36.7428 81.2324 35.3649 81.9332C33.8934 82.6682 32.278 83.0325 30.6478 82.997Z" fill="white"/>
  </g>
  <defs>
    <clipPath id="clip0_98_218">
      <rect width="86" height="90" fill="white" transform="translate(0 0.206055)"/>
    </clipPath>
  </defs>
</svg>