<svg width="17" height="19" viewBox="0 0 17 19" fill="none" xmlns="http://www.w3.org/2000/svg">
<g id="Dark Icon">
<path id="Vector" d="M9.10822 18.4336C8.64126 18.4333 8.17497 18.3982 7.71322 18.3286C5.69106 18.0088 3.83478 17.0195 2.44187 15.5191C1.04895 14.0187 0.200034 12.0941 0.031161 10.0538C-0.137712 8.01348 0.383233 5.97554 1.51052 4.26656C2.6378 2.55757 4.30615 1.27648 6.24822 0.628592C6.45609 0.558291 6.67944 0.547345 6.89319 0.596984C7.10694 0.646622 7.30261 0.754879 7.45822 0.909592C7.62691 1.07381 7.74664 1.28169 7.80403 1.51002C7.86142 1.73834 7.85422 1.97812 7.78322 2.20259C7.51627 3.06985 7.39694 3.97579 7.43022 4.88259C7.50595 6.30474 7.94766 7.68324 8.71257 8.88456C9.47748 10.0859 10.5397 11.0693 11.7962 11.7396C12.9278 12.3829 14.2056 12.7248 15.5072 12.7326C15.7339 12.7357 15.9553 12.8008 16.1476 12.9208C16.3399 13.0408 16.4957 13.2112 16.598 13.4134C16.7004 13.6156 16.7456 13.842 16.7285 14.068C16.7114 14.294 16.6328 14.5111 16.5012 14.6956C15.6498 15.8563 14.5366 16.7997 13.252 17.4492C11.9674 18.0987 10.5477 18.436 9.10822 18.4336ZM6.62822 1.56659C6.60609 1.56664 6.58413 1.57035 6.56322 1.57759C5.34752 1.98102 4.24424 2.66576 3.34313 3.57608C2.44203 4.4864 1.76856 5.5966 1.37752 6.81634C0.986485 8.03608 0.888925 9.33091 1.09278 10.5955C1.29664 11.86 1.79615 13.0586 2.55068 14.0937C3.3052 15.1287 4.29343 15.9711 5.43495 16.5521C6.57647 17.1331 7.83904 17.4365 9.11993 17.4374C10.4008 17.4384 11.6638 17.137 12.8062 16.5577C13.9486 15.9783 14.9381 15.1375 15.6942 14.1036C15.7184 14.0697 15.7325 14.0296 15.7348 13.988C15.7371 13.9464 15.7275 13.905 15.7072 13.8686C15.6894 13.8287 15.6605 13.7947 15.624 13.7706C15.5875 13.7465 15.5449 13.7333 15.5012 13.7326C14.0328 13.7242 12.5911 13.34 11.3132 12.6166C9.90481 11.8627 8.71514 10.7575 7.8596 9.40843C7.00406 8.05933 6.51168 6.51202 6.43022 4.91659C6.39426 3.8986 6.52947 2.8818 6.83022 1.90859C6.84508 1.85924 6.84652 1.80682 6.8344 1.75673C6.82227 1.70664 6.79701 1.66068 6.76122 1.62359C6.7442 1.60541 6.72359 1.59095 6.7007 1.58114C6.67781 1.57133 6.65313 1.56637 6.62822 1.56659Z" fill="currentColor"/>
</g>
</svg>
