<svg 
  width="86" 
  height="91" 
  viewBox="0 0 86 91" 
  fill="none" 
  xmlns="http://www.w3.org/2000/svg"
>
  <g clip-path="url(#clip0_98_221)">
    <path d="M7.80089 79.8214L0 0.206055H85.8097L78.0089 79.8214L42.8097 88.8214" fill="#E34F26"/>
    <path d="M43 81.8983L71.3496 74.8022L78.0088 6.60986H43" fill="#EF652A"/>
    <path d="M43 36.2061H28.7301L27.7788 26.1677H43V16.4753H15.9823L18.8363 46.0715H43V36.2061ZM43 61.6484L30.823 58.7061L30.0619 50.9177H19.4071L20.7389 66.3215L43 71.86V61.6484Z" fill="#ECEDEE"/>
    <path d="M43 46.0715H56.1283L54.7965 58.7061L43 61.6484V71.86L64.8805 66.3215L67.9248 36.2061H43V46.0715ZM43 16.4753V26.1677H68.8761L69.8274 16.4753H43Z" fill="white"/>
  </g>
  <defs>
    <clipPath id="clip0_98_221">
      <rect width="86" height="90" fill="white" transform="translate(0 0.206055)"/>
    </clipPath>
  </defs>
</svg>