<svg
    width="86" 
    height="91" 
    viewBox="0 0 86 91" 
    fill="none" 
    xmlns="http://www.w3.org/2000/svg"
>
    <g clip-path="url(#clip0_98_179)">
      <path fill-rule="evenodd" clip-rule="evenodd" d="M43 24.5271C32.187 24.5271 23.4036 33.7117 23.4036 45.0349C23.4036 56.3655 32.18 65.55 43 65.55C53.827 65.55 62.6034 56.3655 62.6034 45.0349C62.5964 33.7117 53.82 24.5344 43 24.5271ZM82.1437 26.3874L81.7658 25.5305L81.1779 26.2483C79.7152 27.9841 77.8605 29.3245 75.7889 30.1301L75.201 30.3499L75.432 30.9651C77.2096 35.4402 78.1265 40.2522 78.1265 45.0862C78.1265 65.3962 62.3864 81.8831 42.972 81.8831C23.5576 81.8831 7.82454 65.3962 7.82454 45.0789C7.82454 24.7615 23.5646 8.28931 42.979 8.28931C48.2 8.28931 53.3441 9.50513 58.0612 11.8489L58.6071 12.1199L58.8381 11.5046C59.7129 9.38794 61.0846 7.51294 62.8133 6.07007L63.5062 5.45483L62.7153 5.02271C56.6685 1.73413 49.9287 0.0129395 43.098 0.0129395C43.077 0.0129395 43.028 0.0129395 42.986 0.0129395C19.2534 0.0129395 0 20.1619 0 45.0129C0 69.864 19.2674 90.0129 43 90.0129C66.7536 90.0129 86 69.864 86 45.0129C86 38.5676 84.6842 32.1882 82.1227 26.3362L82.1437 26.3874ZM80.0651 16.9978C80.0651 11.8416 76.0759 7.65942 71.1418 7.65942C66.2147 7.65942 62.2184 11.8416 62.2184 16.9978C62.2184 22.1687 66.2147 26.3508 71.1418 26.3508C76.0828 26.3508 80.0651 22.1614 80.0651 16.9978Z" fill="#478AFF"/>
    </g>
    <defs>
      <clipPath id="clip0_98_179">
        <rect width="86" height="90" fill="white" transform="translate(0 0.206055)"/>
      </clipPath>
    </defs>
  </svg>