<svg 
    width="86" 
    height="91" 
    viewBox="0 0 86 91" 
    fill="none" 
    xmlns="http://www.w3.org/2000/svg"
>
  <g clip-path="url(#clip0_98_204)">
    <path d="M0 0.206055H86V90.2061H0V0.206055Z" fill="#F0DB4F"/>
    <path d="M78.9614 68.7413C78.332 64.6349 75.7732 61.1872 68.1951 57.9704C65.5628 56.7043 62.628 55.7975 61.7533 53.71C61.4426 52.4951 61.4017 51.8107 61.5979 51.075C62.162 48.6881 64.8842 47.9438 67.0424 48.6282C68.4321 49.1159 69.7483 50.2367 70.5413 52.0246C74.2527 49.5095 74.2445 49.5265 76.8359 47.7985C75.8877 46.2585 75.3808 45.5484 74.7595 44.8897C72.5278 42.2804 69.4867 40.9372 64.6226 41.0399C63.7806 41.1511 62.9305 41.2708 62.0884 41.3821C59.6606 42.0237 57.347 43.3583 55.9899 45.1464C51.9188 49.98 53.0797 58.441 58.0337 61.923C62.9141 65.7557 70.0835 66.6283 70.9991 70.2129C71.8901 74.6017 67.9172 76.0218 63.9687 75.5171C61.0584 74.884 59.4398 73.3355 57.6903 70.5209C54.4695 72.4715 54.4695 72.4715 51.1587 74.4648C51.9435 76.2614 52.769 77.0741 54.0853 78.6312C60.3146 85.2443 75.904 84.9192 78.6999 74.9097C78.8143 74.5674 79.5665 72.2746 78.9614 68.7413ZM46.7523 41.5702H38.7082C38.7082 48.8421 38.6756 56.0626 38.6756 63.3345C38.6756 67.9628 38.9045 72.2062 38.1851 73.5065C37.0079 76.0644 33.9587 75.748 32.5689 75.2517C31.1547 74.5245 30.4353 73.4893 29.6014 72.0265C29.3725 71.6073 29.2009 71.2822 29.1436 71.2565C26.9609 72.651 24.7863 74.054 22.6036 75.4486C23.691 77.7841 25.2932 79.8117 27.3451 81.1291C30.4107 83.054 34.5308 83.6443 38.8391 82.6091C41.6431 81.7536 44.0628 79.9828 45.3299 77.2879C47.161 73.7546 46.7687 69.4771 46.7523 64.7461C46.7932 57.0294 46.7523 49.3126 46.7523 41.5702Z" fill="#323330"/>
  </g>
  <defs>
    <clipPath id="clip0_98_204">
      <rect width="86" height="90" fill="white" transform="translate(0 0.206055)"/>
    </clipPath>
  </defs>
</svg>