<svg 
    width="86" 
    height="91" 
    viewBox="0 0 86 91" 
    fill="none" 
    xmlns="http://www.w3.org/2000/svg"
>
  <g clip-path="url(#clip0_98_195)">
    <path d="M27.8828 69.657C27.8828 69.657 23.1797 71.7379 30.9063 72.5183C39.9766 73.2986 44.6797 73.0385 54.7578 71.7379C54.7578 71.7379 57.4453 73.0385 61.1406 74.079C38.6328 81.6223 9.74221 73.5587 27.8828 69.657ZM24.8594 60.0327C24.8594 60.0327 19.8203 62.894 27.5469 63.4142C37.2891 64.1946 45.0156 64.1946 58.4531 62.3738C58.4531 62.3738 60.4688 63.6743 63.4922 64.4547C35.9453 70.6975 5.37502 64.9749 24.8594 60.0327Z" fill="#5382A1"/>
    <path d="M48.375 43.3853C54.0859 48.3275 47.0312 52.7495 47.0312 52.7495C47.0312 52.7495 61.1406 47.0269 54.4218 40.0038C48.375 33.2408 43.6718 30.1194 69.2031 18.6743C69.2031 18.6743 29.2265 26.2177 48.375 43.3853Z" fill="#E76F00"/>
    <path d="M78.2734 76.9402C78.2734 76.9402 81.6328 79.0211 74.9141 80.8419C61.8125 83.9633 20.1563 84.7436 8.73438 80.8419C4.70313 79.5413 12.4297 77.4604 14.7813 77.2003L18.8125 76.68C14.1094 74.339 -11.0859 81.6222 6.04688 83.9633C52.4063 89.6858 90.3672 81.3621 78.2734 76.9402ZM29.8984 49.628C29.8984 49.628 8.73438 53.5297 22.5078 55.0904C28.2188 55.6107 39.6406 55.6107 50.3906 54.8303C59.125 54.3101 67.8594 53.0095 67.8594 53.0095L62.4844 55.3506C40.9844 59.5124 -0.335933 57.4315 11.7578 53.0095C21.8359 49.3679 29.8984 49.628 29.8984 49.628ZM67.8594 66.0153C89.3594 57.4315 79.2812 48.8477 72.2266 50.1482L69.875 50.6685C69.875 50.6685 70.5469 49.8881 71.8906 49.3679C85.6641 45.7263 96.4141 60.5529 67.1875 66.5355L67.8594 66.0153Z" fill="#5382A1"/>
    <path d="M54.4219 0.206055C54.4219 0.206055 66.5156 9.57022 43 23.8766C24.1875 35.5818 38.9687 42.0847 43 49.628C32.25 41.8246 24.1875 35.0615 29.5625 28.8188C37.289 19.7147 59.4609 15.0326 54.4219 0.206055Z" fill="#E76F00"/>
    <path d="M31.9141 89.946C52.7422 90.9865 84.9922 89.1657 85.6641 81.6223C85.6641 81.6223 84.3203 84.4836 68.5312 86.8246C50.7266 89.4258 28.5547 89.1657 15.4531 87.3449C15.4531 87.3449 18.1406 89.1657 31.9141 89.946Z" fill="#5382A1"/>
  </g>
  <defs>
    <clipPath id="clip0_98_195">
      <rect width="86" height="90" fill="white" transform="translate(0 0.206055)"/>
    </clipPath>
  </defs>
</svg>