<svg 
  width="86" 
  height="91" 
  viewBox="0 0 86 91" 
  fill="none" 
  xmlns="http://www.w3.org/2000/svg"
>
  <path 
    d="M34.531 17.6991C16.1069 17.6991 1.1731 15.0047 1.1731 11.6979V76.5689C1.1731 79.8926 16.1069 82.5708 34.531 82.5708C52.9545 82.5708 67.8883 79.8764 67.8883 76.5689V11.6599C67.8883 15.0054 52.9545 17.6991 34.531 17.6991Z" 
    fill="#D1D1D1"
  />
  <path 
    d="M1.1731 11.6599V76.5689C1.1731 79.8925 16.1069 82.5707 34.531 82.5707V17.699C16.1069 17.699 1.1731 15.0046 1.1731 11.6592V11.6599ZM63.1986 14.7571V79.6289C66.1716 78.731 67.8883 77.6763 67.8883 76.5527V11.6592C67.8883 12.8074 66.177 13.8431 63.1986 14.7571Z" 
    fill="#ADADAD"
  />
  <path 
    d="M67.8883 11.6761C67.8883 8.35526 52.9525 5.66089 34.531 5.66089C16.1069 5.66089 1.1731 8.35526 1.1731 11.6761C1.1731 14.9991 16.1069 17.6935 34.531 17.6935C52.9518 17.6935 67.8883 14.9991 67.8883 11.6761ZM1.1731 52.4707C1.1731 55.7944 16.1069 58.4719 34.531 58.4719C52.9545 58.4719 67.8883 55.7775 67.8883 52.4707V57.3814C67.8883 60.7022 52.9545 63.3804 34.531 63.3804C16.1069 63.3804 1.1731 60.686 1.1731 57.3814V52.4707ZM1.1731 30.8496C1.1731 34.1705 16.1069 36.8508 34.531 36.8508C52.9545 36.8508 67.8883 34.1536 67.8883 30.8496V35.7575C67.8883 39.0811 52.9545 41.7593 34.531 41.7593C16.1069 41.7593 1.1731 39.065 1.1731 35.7582V30.8496Z" 
    fill="#939699"
  />
  <path 
    d="M85.0863 65.6599C85.0863 77.1074 76.2209 86.388 65.2821 86.388C54.3433 86.388 45.4752 77.1074 45.4752 65.6599C45.4752 54.2123 54.3433 44.9338 65.2821 44.9338C76.2209 44.9338 85.0863 54.2123 85.0863 65.6599Z" 
    fill="#ECEDF0"
  />
  <path 
    d="M82.6433 65.66C82.6433 75.6957 74.8697 83.8287 65.282 83.8287C55.6924 83.8287 47.9208 75.6957 47.9208 65.66C47.9208 55.6264 55.6924 47.4912 65.282 47.4912C74.8697 47.4912 82.6433 55.6264 82.6433 65.66Z" 
    fill="#3FAA00"
  />
  <path d="M59.1673 74.6711L75.3104 64.9188L59.1666 55.165L59.1673 74.6711Z" fill="white"/>
</svg>