<svg width="90" height="94" viewBox="0 0 90 94" fill="none" xmlns="http://www.w3.org/2000/svg">
  <path d="M68.2907 69.5015C68.9077 64.3137 68.7228 63.5529 72.5515 64.3933L73.5235 64.4794C76.4675 64.6146 80.3186 64.0016 82.5811 62.9407C87.4515 60.66 90.3395 56.852 85.5371 57.8525C74.5825 60.1333 73.8293 56.3897 73.8293 56.3897C85.3968 39.0679 90.2324 17.0795 86.0585 11.6971C74.6741 -2.98386 54.9682 3.95846 54.6384 4.1387L54.5334 4.15827C52.369 3.70501 49.9466 3.43421 47.2254 3.3898C42.2681 3.30759 38.5065 4.70142 35.6531 6.88569C35.6531 6.88569 0.49869 -7.73135 2.13414 25.2681C2.48196 32.288 12.1043 78.3867 23.5808 64.4627C27.7754 59.3712 31.829 55.0662 31.829 55.0662C33.8419 56.4159 36.2519 57.1043 38.7794 56.857L38.9748 56.6889C38.9136 57.321 38.9406 57.9394 39.053 58.6713C36.097 62.0052 36.9656 62.5906 31.0548 63.8185C25.0747 65.0624 28.588 67.277 30.8812 67.8557C33.662 68.5576 40.0951 69.5518 44.443 63.4103L44.2699 64.111C45.4297 65.0474 45.3513 70.8414 45.5157 74.9812C45.6804 79.1211 45.955 82.9843 46.7911 85.262C47.6273 87.5392 48.6139 93.406 56.3821 91.7257C62.8745 90.3216 67.8383 88.3009 68.2907 69.5015Z" fill="black" stroke="black" stroke-width="3"/>
  <path d="M85.5381 57.8522C74.5824 60.1329 73.8293 56.3893 73.8293 56.3893C85.3968 39.0664 90.2323 17.0775 86.0593 11.6959C74.675 -2.98422 54.9681 3.95853 54.6392 4.13877L54.5334 4.1579C52.3689 3.70443 49.9466 3.43428 47.2241 3.38944C42.2668 3.30745 38.5065 4.70105 35.6531 6.88488C35.6531 6.88488 0.497997 -7.7315 2.13301 25.2677C2.48084 32.2881 12.103 78.3868 23.5799 64.4628C27.7747 59.3713 31.8277 55.0663 31.8277 55.0663C33.8408 56.4159 36.2507 57.1044 38.7772 56.8571L38.9734 56.6889C38.9124 57.3211 38.9403 57.9394 39.0521 58.6714C36.0954 62.0053 36.9642 62.5907 31.0538 63.8185C25.0733 65.0624 28.5866 67.277 30.8805 67.8558C33.6613 68.5577 40.0949 69.5519 44.4419 63.4103L44.2686 64.1111C45.427 65.0475 46.2405 70.2023 46.1042 74.875C45.9678 79.548 45.8768 82.7562 46.7896 85.262C47.7024 87.7679 48.6121 93.4061 56.3819 91.7258C62.8742 90.3217 66.2385 86.6829 66.7066 80.6132C67.0387 76.2981 67.7904 76.936 67.8378 73.0781L68.4407 71.2517C69.1359 65.4023 68.5511 63.5152 72.551 64.3929L73.523 64.4791C76.467 64.6142 80.3201 64.0012 82.5815 62.9404C87.451 60.6596 90.3391 56.8516 85.5377 57.8522H85.5381Z" fill="#336791"/>
  <path d="M44.9124 61.2052C44.6108 72.0894 44.9882 83.0494 46.0434 85.7131C47.0993 88.3768 49.359 93.5577 57.1294 91.8777C63.6211 90.4731 65.9831 87.7549 67.0081 81.7552C67.763 77.3409 69.2183 65.0816 69.405 62.5698M35.5989 6.64178C35.5989 6.64178 0.419856 -7.8693 2.05531 25.1299C2.40313 32.1503 12.0259 78.2505 23.5026 64.3258C27.6965 59.2337 31.4895 55.2399 31.4895 55.2399M54.6007 3.99327C53.383 4.3786 74.1695 -3.67574 85.9827 11.5585C90.1555 16.9404 85.3199 38.9293 73.7527 56.2526" stroke="white" stroke-width="3" stroke-linecap="round" stroke-linejoin="round"/>
  <path d="M73.7524 56.2525C73.7524 56.2525 74.5062 59.9972 85.4621 57.7149C90.2624 56.7143 87.3735 60.5227 82.505 62.8046C78.5095 64.6761 69.5517 65.1557 69.4053 62.5696C69.0288 55.8972 74.1198 57.9244 73.7524 56.2525ZM73.7524 56.2525C73.4202 54.7468 71.1436 53.269 69.6375 49.5838C68.3226 46.3673 51.6046 21.7009 74.2738 25.3643C75.1042 25.1909 68.3614 3.60252 47.1463 3.25148C25.936 2.90044 26.6318 29.5766 26.6318 29.5766" stroke="white" stroke-width="3" stroke-linecap="round" stroke-linejoin="bevel"/>
  <path d="M38.9748 58.5345C36.0178 61.8682 36.8874 62.4536 30.9766 63.6819C24.9961 64.926 28.5098 67.1402 30.803 67.7187C33.5839 68.421 40.0174 69.4152 44.3645 63.2721C45.6883 61.4018 44.3566 58.4174 42.5382 57.6566C41.6596 57.2893 40.4848 56.829 38.9748 58.5345Z" stroke="white" stroke-width="3" stroke-linecap="round" stroke-linejoin="round"/>
  <path d="M38.7812 58.4763C38.4833 56.5163 39.4194 54.1838 40.4226 51.4551C41.9302 47.3609 45.4086 43.266 42.626 30.2787C40.5519 20.6006 26.6405 28.2645 26.6318 29.5768C26.6233 30.8886 27.261 36.2283 26.3994 42.4463C25.2751 50.5603 31.515 57.4226 38.7004 56.7205" stroke="white" stroke-width="3" stroke-linecap="round" stroke-linejoin="round"/>
  <path d="M35.4711 29.3801C35.4083 29.8283 36.2841 31.0243 37.426 31.1841C38.566 31.3446 39.5417 30.4099 39.6036 29.9622C39.6654 29.514 38.7908 29.0203 37.6484 28.8598C36.5078 28.6991 35.5316 28.933 35.4713 29.3801H35.4711Z" fill="white" stroke="white" stroke-width="3"/>
  <path d="M70.1934 28.4662C70.2552 28.9144 69.3806 30.1104 68.2384 30.2702C67.0976 30.4307 66.1218 29.496 66.0593 29.0483C65.999 28.6001 66.8739 28.1064 68.015 27.9459C69.156 27.7854 70.1315 28.0191 70.1934 28.4664V28.4662Z" fill="white" stroke="white" stroke-width="3"/>
  <path d="M74.2738 25.3645C74.4618 28.8802 73.5235 31.2748 73.4052 35.0173C73.2301 40.4572 75.975 46.6836 71.8391 52.9177" stroke="white" stroke-width="3" stroke-linecap="round" stroke-linejoin="round"/>
</svg>