<svg
    width="40" 
    height="41" 
    viewBox="0 0 40 41" 
    fill="none" 
    xmlns="http://www.w3.org/2000/svg"
>
    <path 
        d="M20.2 28.7561C20.2 28.9761 20.37 29.1561 20.575 29.1561H29.825C30.03 29.1561 30.2 28.9761 30.2 28.7561V26.3561C30.2 26.1361 30.03 25.9561 29.825 25.9561H20.575C20.37 25.9561 20.2 26.1361 20.2 26.3561V28.7561ZM10.455 29.0611L20.055 21.0111C20.245 20.8511 20.245 20.5561 20.055 20.3961L10.455 12.3511C10.397 12.3018 10.3262 12.2702 10.2508 12.26C10.1754 12.2498 10.0987 12.2614 10.0297 12.2935C9.96073 12.3256 9.90243 12.3769 9.86172 12.4411C9.821 12.5054 9.79958 12.58 9.8 12.6561V15.7911C9.8 15.9111 9.85 16.0211 9.945 16.0961L15.435 20.7061L9.945 25.3161C9.90031 25.3535 9.86422 25.4001 9.83919 25.4527C9.81417 25.5054 9.8008 25.5628 9.8 25.6211V28.7561C9.8 29.0961 10.195 29.2811 10.455 29.0611ZM38.4 0.706055H1.6C0.715 0.706055 0 1.42105 0 2.30605V39.1061C0 39.9911 0.715 40.7061 1.6 40.7061H38.4C39.285 40.7061 40 39.9911 40 39.1061V2.30605C40 1.42105 39.285 0.706055 38.4 0.706055ZM36.4 37.1061H3.6V4.30605H36.4V37.1061Z"
        fill="currentColor"/>
</svg>