<svg 
    width="86" 
    height="91" 
    viewBox="0 0 86 91" 
    fill="none" 
    xmlns="http://www.w3.org/2000/svg"
>
  <g clip-path="url(#clip0_98_249)">
    <path d="M42.6909 0.206055C20.8577 0.206055 22.2203 10.1145 22.2203 10.1145L22.2471 20.3801H43.0806V23.4598H13.9669C13.9669 23.4598 0 21.8004 0 44.8573C0 67.9086 12.1932 67.0929 12.1932 67.0929H19.4709V56.3942C19.4709 56.3942 19.0786 43.6339 31.4706 43.6339H52.1321C52.1321 43.6339 63.7421 43.8307 63.7421 31.8917V12.1507C63.7421 12.1507 65.5051 0.206055 42.6909 0.206055ZM31.2019 7.10793C32.1962 7.10793 33.1498 7.52129 33.8529 8.25708C34.556 8.99287 34.9509 9.99081 34.9509 11.0314C34.9509 12.0719 34.556 13.0699 33.8529 13.8057C33.1498 14.5414 32.1962 14.9548 31.2019 14.9548C30.7093 14.9555 30.2215 14.8546 29.7663 14.6577C29.3112 14.4607 28.8976 14.1718 28.5493 13.8073C28.201 13.4428 27.9249 13.01 27.7368 12.5337C27.5486 12.0573 27.4521 11.5468 27.4528 11.0314C27.4528 8.86293 29.1298 7.10793 31.2019 7.10793Z" fill="url(#paint0_linear_98_249)"/>
    <path d="M43.309 89.7363C65.1423 89.7363 63.7797 79.8279 63.7797 79.8279L63.7528 69.5622H42.9193V66.4825H72.0303C72.0303 66.4825 86 68.1419 86 45.0879C86 22.0338 73.8068 22.8522 73.8068 22.8522H66.529V33.5482C66.529 33.5482 66.9214 46.3085 54.5294 46.3085H33.8678C33.8678 46.3085 22.2578 46.1116 22.2578 58.0507V77.7916C22.2578 77.7916 20.4949 89.7363 43.309 89.7363ZM54.7981 82.8344C54.3056 82.8352 53.8177 82.7342 53.3626 82.5373C52.9074 82.3404 52.4938 82.0514 52.1455 81.6869C51.7973 81.3224 51.5211 80.8896 51.333 80.4133C51.1448 79.9369 51.0483 79.4264 51.049 78.911C51.0496 78.1358 51.2697 77.3782 51.6815 76.7339C52.0934 76.0895 52.6785 75.5875 53.363 75.2911C54.0474 74.9947 54.8005 74.9173 55.527 75.0686C56.2534 75.22 56.9207 75.5934 57.4445 76.1415C57.9683 76.6896 58.325 77.388 58.4697 78.1482C58.6143 78.9085 58.5403 79.6966 58.2571 80.4128C57.9739 81.1291 57.4941 81.7415 56.8785 82.1725C56.2628 82.6035 55.5388 82.8339 54.7981 82.8344Z" fill="url(#paint1_linear_98_249)"/>
  </g>
  <defs>
    <linearGradient id="paint0_linear_98_249" x1="8.26406" y1="8.03043" x2="52.7271" y2="50.6596" gradientUnits="userSpaceOnUse">
      <stop stop-color="#387EB8"/>
      <stop offset="1" stop-color="#366994"/>
    </linearGradient>
    <linearGradient id="paint1_linear_98_249" x1="34.4242" y1="36.4366" x2="82.0777" y2="80.0617" gradientUnits="userSpaceOnUse">
      <stop stop-color="#FFE052"/>
      <stop offset="1" stop-color="#FFC331"/>
    </linearGradient>
    <clipPath id="clip0_98_249">
      <rect width="86" height="90" fill="white" transform="translate(0 0.206055)"/>
    </clipPath>
  </defs>
</svg>