<svg 
    width="40" 
    height="41" 
    viewBox="0 0 40 41" 
    fill="none" 
    xmlns="http://www.w3.org/2000/svg"
>
    <path 
    d="M35.7071 24.5908L35.5271 22.7816L35.4671 22.7871L35.4089 22.798L35.7071 24.5908ZM35.7071 24.5908L35.8889 26.4L35.9489 26.3945L36.0071 26.3854L35.7071 24.5908ZM28.3613 34.5585L29.5123 33.1512L29.4977 33.1403L28.3613 34.5585ZM28.3613 34.5585L27.2103 35.9658L27.2249 35.9786L28.3613 34.5585ZM11.6406 34.5585L10.4896 33.153L10.4605 33.1766L10.4332 33.2003L11.6406 34.5585ZM11.6406 34.5585L12.7915 35.9677L12.8206 35.944L12.8479 35.9186L11.6406 34.5585ZM4.29296 16.8232V15.0049H4.20204L4.11295 15.014L4.29296 16.8232ZM4.29296 16.8232V18.6414H4.38387L4.47478 18.6323L4.29296 16.8232ZM25.6939 4.81718C25.6639 4.46745 25.6209 4.11877 25.5684 3.77168C25.5123 3.38958 25.3957 3.01886 25.223 2.67345L21.9919 4.34262C21.9501 4.2608 21.9592 4.2317 21.9828 4.37535C22.0101 4.53717 22.0337 4.76264 22.0756 5.18084L25.6939 4.81718ZM25.8666 6.54453C25.9812 6.69363 25.943 6.76091 25.8794 6.40635C25.8194 6.06815 25.7721 5.59358 25.6939 4.81718L22.0737 5.17902C22.1465 5.89541 22.2083 6.53908 22.301 7.05183C22.3901 7.54276 22.5465 8.18824 22.9738 8.74827L25.8666 6.54453ZM25.8666 6.54453L22.9738 8.74827C23.3629 9.25892 23.8803 9.65745 24.4734 9.90336C25.0664 10.1493 25.714 10.2338 26.3503 10.1483L25.8666 6.54453ZM27.2085 5.44448C26.801 5.78889 26.382 6.11939 25.9521 6.43544C25.6557 6.6409 25.6794 6.56817 25.8666 6.54453L26.3503 10.1483C27.0485 10.0538 27.6158 9.70831 28.0267 9.42103C28.454 9.12647 28.9541 8.71554 29.5104 8.25915L27.2085 5.44448ZM29.0559 4.26261C28.6899 4.38437 28.3455 4.56359 28.0358 4.79355C27.7813 4.97537 27.4958 5.20993 27.2085 5.44448L29.5104 8.25915C29.8359 7.99369 30.0123 7.85005 30.1468 7.7555C30.265 7.67004 30.2487 7.69913 30.1632 7.7264L29.0559 4.26261ZM31.6087 4.38989C30.8012 4.03996 29.8942 3.99474 29.0559 4.26261L30.1632 7.7264L31.6087 4.38989ZM33.3288 5.74995C33.084 5.49823 32.8311 5.25446 32.5706 5.01901C32.2848 4.75948 31.9595 4.54712 31.6069 4.38989L30.1632 7.7264C30.0796 7.69004 30.0668 7.66095 30.1759 7.75731C30.2996 7.86641 30.4614 8.0246 30.7578 8.32098L33.3288 5.74995ZM34.9543 7.37548L33.3288 5.74995L30.7578 8.32098L32.3833 9.9465L34.9543 7.37548ZM36.3144 9.09556C36.1572 8.74297 35.9448 8.41767 35.6853 8.13188C35.4498 7.87198 35.206 7.61971 34.9543 7.37548L32.3833 9.94832C32.6797 10.2447 32.8379 10.4065 32.947 10.5302C33.0433 10.6393 33.0142 10.6265 32.9779 10.5429L36.3144 9.09556ZM36.4417 11.6484C36.7095 10.8101 36.6643 9.90307 36.3144 9.09556L32.9779 10.5429L36.4417 11.6484ZM35.2598 13.4958C35.4856 13.227 35.7027 12.9511 35.9107 12.6684C36.1035 12.3993 36.3107 12.0648 36.4417 11.6484L32.9779 10.5429C33.0051 10.4574 33.0324 10.4393 32.9488 10.5593C32.8542 10.692 32.7124 10.8684 32.4451 11.1938L35.2598 13.4958ZM34.1597 14.8394C34.1361 15.0267 34.0634 15.0485 34.2688 14.7522C34.4634 14.4703 34.7652 14.0994 35.2598 13.4958L32.4451 11.1938C31.9906 11.7502 31.5778 12.2502 31.2814 12.6775C30.996 13.0885 30.6505 13.6558 30.5559 14.354L34.1597 14.8394ZM34.1597 14.8394L30.5559 14.354C30.4705 14.9903 30.555 15.6379 30.8009 16.2309C31.0468 16.824 31.4454 17.3414 31.956 17.7305L34.1597 14.8394ZM35.8871 15.0122C35.3554 14.9677 34.8254 14.9052 34.2979 14.8249C33.9434 14.7613 34.0106 14.7249 34.1597 14.8394L31.956 17.7305C32.516 18.1578 33.1597 18.3141 33.6543 18.4032C34.1652 18.4942 34.8089 18.5578 35.5253 18.6305L35.8871 15.0122ZM38.0308 15.4813C37.6854 15.3086 37.3147 15.1919 36.9326 15.1358C36.5855 15.0834 36.2368 15.0422 35.8871 15.0122L35.5253 18.6305C35.7945 18.6542 36.063 18.6845 36.3307 18.7214C36.4762 18.7469 36.4453 18.756 36.3635 18.7142L38.0308 15.4813ZM39.7454 17.3777C39.4223 16.5589 38.8131 15.8851 38.0308 15.4813L36.3653 18.7178L39.7454 17.3777ZM40 19.556C40 19.1851 40 18.816 39.98 18.5032C39.9616 18.1173 39.8818 17.7368 39.7436 17.3759L36.3653 18.7178C36.3326 18.6323 36.3435 18.6033 36.3544 18.7487C36.3653 18.9124 36.3653 19.1396 36.3653 19.5597L40 19.556ZM40 21.8543V19.556H36.3635V21.8543H40ZM39.7454 24.0326C39.9054 23.6271 39.9582 23.238 39.98 22.9053C40 22.5943 40 22.2252 40 21.8543H36.3635C36.3635 22.2743 36.3635 22.5016 36.3526 22.6652C36.3417 22.8107 36.3307 22.7816 36.3635 22.6962L39.7454 24.0326ZM38.0308 25.929C38.8131 25.5253 39.4223 24.8514 39.7454 24.0326L36.3653 22.698L38.0308 25.929ZM35.8871 26.3981C36.258 26.3618 36.6235 26.3254 36.9326 26.2745C37.2599 26.22 37.6417 26.129 38.0308 25.929L36.3653 22.698C36.4453 22.6562 36.4762 22.6653 36.3326 22.6889C36.065 22.7273 35.7964 22.7582 35.5271 22.7816L35.8871 26.3981ZM34.1616 26.5709C34.0106 26.6854 33.9434 26.6491 34.2979 26.5854C34.6361 26.5254 35.1107 26.4763 35.8871 26.3981L35.5253 22.7798C34.8107 22.8525 34.1652 22.9144 33.6543 23.0071C33.1615 23.0962 32.516 23.2525 31.956 23.6798L34.1616 26.5709ZM34.1616 26.5709L31.956 23.6798C31.4454 24.069 31.0468 24.5863 30.8009 25.1794C30.555 25.7725 30.4705 26.42 30.5559 27.0564L34.1616 26.5709ZM35.2598 27.9128C34.9154 27.5058 34.5849 27.0874 34.2688 26.6582C34.0634 26.3618 34.1379 26.3836 34.1616 26.5709L30.5559 27.0564C30.6505 27.7546 30.996 28.3219 31.2832 28.7328C31.5796 29.1601 31.9906 29.6601 32.4451 30.2165L35.2598 27.9128ZM36.4417 29.7601C36.3197 29.3947 36.1405 29.051 35.9107 28.7419C35.7289 28.4855 35.4943 28.2019 35.2598 27.9128L32.4451 30.2165C32.7106 30.542 32.8542 30.7165 32.9488 30.8511C33.0342 30.9693 33.007 30.9547 32.9779 30.8693L36.4417 29.7601ZM36.3144 32.3148C36.6648 31.5067 36.71 30.599 36.4417 29.7601L32.9779 30.8693L36.3144 32.3148ZM34.9543 34.0348C35.218 33.7712 35.478 33.513 35.6853 33.2766C35.9035 33.0257 36.1398 32.7148 36.3144 32.313L32.9779 30.8674C33.0142 30.7838 33.0433 30.7729 32.947 30.882C32.8379 31.0056 32.6797 31.1656 32.3833 31.4638L34.9543 34.0348ZM33.3288 35.6586L34.9543 34.0348L32.3833 31.4638L30.7578 33.0875L33.3288 35.6586ZM31.6087 37.0204C31.9614 36.8627 32.2867 36.6497 32.5724 36.3895C32.8069 36.184 33.067 35.9222 33.3288 35.6586L30.7578 33.0875C30.5691 33.2808 30.3751 33.4687 30.1759 33.6512C30.0668 33.7494 30.0796 33.7203 30.1632 33.6839L31.6087 37.0204ZM29.0559 37.1477C29.8942 37.4156 30.8012 37.3704 31.6087 37.0204L30.1632 33.6839L29.0559 37.1477ZM27.2085 35.9658C27.4958 36.2004 27.7795 36.435 28.0358 36.6168C28.3049 36.8077 28.6395 37.015 29.0559 37.1477L30.1632 33.6839C30.2487 33.7112 30.265 33.7385 30.145 33.6548C29.9289 33.4929 29.7172 33.3249 29.5104 33.1512L27.2085 35.9658ZM25.8666 34.8676C25.6794 34.8403 25.6557 34.7676 25.9521 34.9731C26.2339 35.1694 26.603 35.4695 27.2067 35.964L29.5104 33.1512C28.9541 32.6948 28.454 32.2839 28.0267 31.9875C27.6158 31.7002 27.0485 31.3565 26.3503 31.262L25.8666 34.8676ZM25.8666 34.8676L26.3503 31.262C25.714 31.1765 25.0664 31.2611 24.4734 31.507C23.8803 31.7529 23.3629 32.1514 22.9738 32.6621L25.8666 34.8676ZM25.6921 36.5931C25.7703 35.8167 25.8194 35.3404 25.8794 35.004C25.943 34.6494 25.9794 34.7149 25.8648 34.8658L22.9738 32.6602C22.5465 33.2203 22.3901 33.8657 22.301 34.3585C22.2101 34.8712 22.1483 35.5149 22.0756 36.2313L25.6921 36.5931ZM25.2212 38.7369C25.4212 38.3478 25.5121 37.9659 25.5666 37.6386C25.6212 37.3295 25.6539 36.9641 25.6921 36.5931L22.0756 36.2313C22.0516 36.5012 22.02 36.7686 21.981 37.0368C21.9574 37.1823 21.9483 37.1514 21.9901 37.0695L25.2212 38.7369ZM23.3283 40.4515C24.1458 40.1276 24.8183 39.5185 25.2212 38.7369L21.9919 37.0713L23.3283 40.4515ZM21.1464 40.7061C21.5192 40.7061 21.8883 40.7061 22.201 40.6861C22.5319 40.6642 22.9211 40.6151 23.3283 40.4515L21.9919 37.0713C22.0774 37.0386 22.1065 37.0495 21.961 37.0604C21.6909 37.0716 21.4204 37.0752 21.1501 37.0713L21.1464 40.7061ZM18.85 40.7061H21.1464L21.1482 37.0695H18.85V40.7061ZM16.6717 40.4515C17.0772 40.6115 17.4663 40.6642 17.799 40.6861C18.1099 40.7061 18.479 40.7061 18.85 40.7061V37.0695C18.4299 37.0695 18.2027 37.0695 18.039 37.0586C17.8936 37.0477 17.9227 37.0368 18.0081 37.0695L16.6717 40.4515ZM14.7752 38.7369C15.179 39.5191 15.8528 40.1283 16.6717 40.4515L18.0081 37.0695L14.7752 38.7369ZM14.3061 36.5931C14.3425 36.9641 14.3789 37.3295 14.4298 37.6386C14.4843 37.9659 14.5752 38.3478 14.7752 38.7369L18.0117 37.0713C18.0536 37.1514 18.0445 37.1823 18.0208 37.0386C17.9824 36.771 17.9515 36.5024 17.9281 36.2331L14.3061 36.5931ZM14.1334 34.8658C14.0188 34.7167 14.0552 34.6476 14.1188 35.004C14.1789 35.3404 14.2279 35.8167 14.3061 36.5931L17.9245 36.2313C17.8517 35.5149 17.7899 34.8712 17.6972 34.3585C17.6081 33.8676 17.4517 33.2221 17.0244 32.6621L14.1334 34.8658ZM14.1334 34.8658L17.0244 32.6621C16.6353 32.1514 16.1179 31.7529 15.5249 31.507C14.9318 31.2611 14.2842 31.1765 13.6479 31.262L14.1334 34.8658ZM12.7897 35.9658C13.3952 35.4713 13.7643 35.1694 14.0461 34.9749C14.3425 34.7694 14.3207 34.8422 14.1334 34.8658L13.6479 31.262C12.9497 31.3565 12.3824 31.702 11.9715 31.9893C11.5442 32.2839 11.0442 32.6948 10.4878 33.1512L12.7897 35.9658ZM10.9423 37.1477C11.3084 37.026 11.6527 36.8467 11.9624 36.6168C12.2169 36.435 12.5024 36.2004 12.7897 35.9658L10.4896 33.153C10.2822 33.3268 10.0718 33.4947 9.85502 33.6567C9.73683 33.7421 9.7532 33.7148 9.83866 33.6857L10.9423 37.1477ZM8.3895 37.0204C9.19701 37.3704 10.104 37.4156 10.9423 37.1477L9.83502 33.6839L8.3895 37.0204ZM6.66761 35.6604C6.93125 35.924 7.19127 36.184 7.42764 36.3913C7.67674 36.6095 7.98766 36.8477 8.39132 37.0223L9.83502 33.6839C9.91866 33.7203 9.93139 33.7494 9.82229 33.653C9.62315 33.4706 9.42913 33.2826 9.24045 33.0894L6.66761 35.6604ZM5.0439 34.0348L6.66943 35.6604L9.24045 33.0894L7.61492 31.4638L5.0439 34.0348ZM3.68384 32.3148C3.85657 32.7148 4.09476 33.0275 4.31296 33.2785C4.52024 33.513 4.78025 33.773 5.0439 34.0348L7.61492 31.4638C7.42167 31.2751 7.23371 31.0811 7.05126 30.882C6.95489 30.7729 6.98398 30.7856 7.02035 30.8693L3.68384 32.3148ZM3.55656 29.7619C3.28868 30.6002 3.3339 31.5073 3.68384 32.3148L7.02035 30.8693L3.55656 29.7619ZM4.73843 27.9146C4.51263 28.1833 4.29554 28.4592 4.08749 28.7419C3.85753 29.0516 3.67832 29.3959 3.55656 29.7619L7.02035 30.8693C6.99126 30.9547 6.9658 30.9711 7.04944 30.8511C7.14399 30.7183 7.28582 30.542 7.5531 30.2165L4.73843 27.9146ZM5.83666 26.5709C5.86212 26.3836 5.93485 26.3618 5.72938 26.6582C5.53483 26.94 5.233 27.3109 4.73843 27.9146L7.5531 30.2165C8.00767 29.6601 8.42041 29.1601 8.71679 28.7328C9.00226 28.3219 9.34773 27.7546 9.44228 27.0564L5.83666 26.5709ZM5.83666 26.5709L9.44228 27.0564C9.52774 26.42 9.44322 25.7725 9.19731 25.1794C8.9514 24.5863 8.55287 24.069 8.04221 23.6798L5.83666 26.5709ZM4.10931 26.3981C4.88753 26.4763 5.36391 26.5254 5.70029 26.5854C6.05485 26.6491 5.98758 26.6854 5.83666 26.5709L8.04221 23.6798C7.48219 23.2525 6.83852 23.0962 6.34396 23.0071C5.83302 22.9162 5.18936 22.8525 4.47115 22.7798L4.10931 26.3981ZM1.9674 25.929C2.35651 26.129 2.73834 26.22 3.06563 26.2745C3.37473 26.3254 3.7402 26.3636 4.11113 26.4L4.47115 22.7798C4.20186 22.757 3.93507 22.7267 3.66747 22.6889C3.52201 22.6634 3.55292 22.6543 3.63474 22.6962L1.9674 25.929ZM0.254594 24.0344C0.577755 24.8532 1.18697 25.5271 1.96922 25.9308L3.63656 22.698L0.254594 24.0344ZM3.71037e-05 21.8561C3.71037e-05 22.227 3.71716e-05 22.5962 0.0200381 22.9089C0.0418572 23.2398 0.0927685 23.6289 0.256412 24.0362L3.63656 22.6962C3.66929 22.7816 3.65838 22.8107 3.64929 22.6652C3.63755 22.3957 3.6333 22.1259 3.63656 21.8561H3.71037e-05ZM3.71037e-05 19.5578V21.8561H3.63656V19.5578H3.71037e-05ZM0.254594 17.3777C0.117035 17.7387 0.0378572 18.1192 0.0200381 18.5051C-0.00178109 18.8178 3.71037e-05 19.1869 3.71037e-05 19.5597H3.63656C3.63656 19.1378 3.63656 18.9105 3.64929 18.7469C3.65838 18.6014 3.66929 18.6305 3.63656 18.716L0.254594 17.3777ZM1.96922 15.4849C1.18763 15.8878 0.578496 16.5603 0.254594 17.3777L3.63656 18.716L1.96922 15.4849ZM4.11295 15.0122C3.74202 15.0504 3.37655 15.0849 3.06745 15.1395C2.74016 15.194 2.35832 15.2849 1.96922 15.4849L3.63656 18.716C3.55474 18.7578 3.52565 18.7487 3.66929 18.7251C3.93687 18.6867 4.20548 18.6558 4.47478 18.6323L4.11295 15.0122ZM5.8403 14.8413C5.99121 14.7267 6.05849 14.7631 5.70211 14.8267C5.36573 14.8867 4.88935 14.9358 4.11295 15.014L4.47478 18.6323C5.18936 18.5596 5.83484 18.4978 6.34759 18.4051C6.84034 18.316 7.48583 18.1596 8.04585 17.7323L5.8403 14.8413ZM5.8403 14.8413L8.04585 17.7323C8.55617 17.343 8.95435 16.8255 9.19993 16.2325C9.44552 15.6394 9.52976 14.9919 9.44409 14.3558L5.8403 14.8413ZM4.74025 13.4976C5.23482 14.1012 5.53665 14.4722 5.73302 14.754C5.93848 15.0504 5.86575 15.0285 5.8403 14.8413L9.44409 14.3558C9.34954 13.6576 9.00589 13.0921 8.71861 12.6794C8.42223 12.2521 8.00949 11.752 7.55492 11.1956L4.74025 13.4976ZM3.55838 11.6484C3.69111 12.0666 3.89657 12.3993 4.08931 12.6703C4.27114 12.9248 4.50569 13.2103 4.74025 13.4976L7.55492 11.1956C7.38115 10.9882 7.21319 10.7779 7.05126 10.5611C6.9658 10.4429 6.99489 10.4574 7.02217 10.5429L3.55838 11.6484ZM3.68566 9.09737C3.33617 9.90435 3.29096 10.8106 3.55838 11.6484L7.02217 10.5429L3.68566 9.09737ZM5.04572 7.37548C4.78207 7.63913 4.52206 7.89732 4.31477 8.1337C4.05525 8.41949 3.84288 8.74479 3.68566 9.09737L7.02217 10.5429C6.9858 10.6265 6.95671 10.6393 7.05308 10.5283C7.16217 10.4047 7.32036 10.2447 7.61674 9.9465L5.04572 7.37548ZM6.67124 5.75177L5.04572 7.37548L7.61674 9.9465L9.24409 8.32279L6.67124 5.75177ZM8.39132 4.38989C8.03861 4.54767 7.71331 4.76066 7.42764 5.02083C7.16774 5.25631 6.91548 5.50008 6.67124 5.75177L9.24409 8.32279C9.54046 8.0246 9.70047 7.86641 9.82411 7.75913C9.93321 7.66095 9.92048 7.69004 9.83684 7.7264L8.39132 4.38989ZM10.9442 4.26261C10.1058 3.99474 9.19883 4.03996 8.39132 4.38989L9.83684 7.7264L10.9442 4.26261ZM12.7897 5.44448C12.5024 5.20993 12.2206 4.97719 11.9642 4.79536C11.6546 4.56477 11.3103 4.38493 10.9442 4.26261L9.83684 7.7264C9.75138 7.69913 9.73502 7.67186 9.85502 7.7555C9.98775 7.85186 10.1641 7.99369 10.4896 8.26097L12.7897 5.44448ZM14.1352 6.54453C14.3225 6.56999 14.3443 6.64272 14.0479 6.43726C13.6187 6.12118 13.2002 5.79067 12.7933 5.4463L10.4896 8.26097C11.046 8.71554 11.5442 9.12647 11.9715 9.42466C12.3824 9.71013 12.9497 10.0538 13.6479 10.1483L14.1352 6.54453ZM14.1352 6.54453L13.6497 10.1483C14.286 10.2338 14.9336 10.1493 15.5267 9.90336C16.1197 9.65745 16.6371 9.25892 17.0262 8.74827L14.1352 6.54453ZM14.3079 4.81718C14.2298 5.5954 14.1807 6.07179 14.1207 6.40816C14.057 6.76273 14.0207 6.69545 14.1352 6.54453L17.0262 8.74827C17.4535 8.18824 17.6099 7.54458 17.699 7.05183C17.7899 6.5409 17.8554 5.89541 17.9263 5.17902L14.3079 4.81718ZM14.7771 2.67527C14.6043 3.02068 14.4877 3.3914 14.4316 3.7735C14.3807 4.08261 14.3443 4.44808 14.3079 4.819L17.9263 5.17902C17.9499 4.90981 17.9803 4.64305 18.0172 4.37535C18.0427 4.22988 18.0517 4.26261 18.0099 4.34262L14.7771 2.67527ZM16.6735 0.960649C15.8547 1.28381 15.1808 1.89303 14.7771 2.67527L18.0099 4.34262L16.6735 0.960649ZM18.8518 0.706092C18.4809 0.706092 18.1117 0.706092 17.799 0.726093C17.4132 0.743912 17.0326 0.823089 16.6717 0.960649L18.0117 4.34262C17.9263 4.37535 17.8972 4.36444 18.0427 4.35535C18.2063 4.34444 18.4336 4.34262 18.8536 4.34262L18.8518 0.706092ZM21.1501 0.706092H18.8518V4.34262H21.1501V0.706092ZM23.3283 0.960649C22.9674 0.823089 22.5869 0.743912 22.201 0.726093C21.8919 0.704274 21.5228 0.706092 21.1519 0.706092V4.34262C21.5719 4.34262 21.7992 4.34262 21.9628 4.35535C22.1083 4.36444 22.0774 4.37535 21.9919 4.34262L23.3283 0.960649ZM25.2248 2.67527C24.821 1.89303 24.1472 1.28381 23.3283 0.960649L21.9919 4.34262L25.2248 2.67527ZM25.4557 20.707C25.4557 22.1537 24.881 23.5411 23.858 24.5641C22.8351 25.5871 21.4476 26.1618 20.0009 26.1618V29.7983C22.4121 29.7983 24.7245 28.8405 26.4295 27.1355C28.1344 25.4306 29.0922 23.1181 29.0922 20.707H25.4557ZM20.0009 15.2522C21.4476 15.2522 22.8351 15.8269 23.858 16.8499C24.881 17.8728 25.4557 19.2603 25.4557 20.707H29.0922C29.0922 18.2958 28.1344 15.9834 26.4295 14.2785C24.7245 12.5735 22.4121 11.6157 20.0009 11.6157V15.2522ZM14.5461 20.707C14.5461 19.2603 15.1208 17.8728 16.1438 16.8499C17.1668 15.8269 18.5542 15.2522 20.0009 15.2522V11.6157C17.5898 11.6157 15.2773 12.5735 13.5724 14.2785C11.8674 15.9834 10.9096 18.2958 10.9096 20.707H14.5461ZM20.0009 26.1618C18.5542 26.1618 17.1668 25.5871 16.1438 24.5641C15.1208 23.5411 14.5461 22.1537 14.5461 20.707H10.9096C10.9096 23.1181 11.8674 25.4306 13.5724 27.1355C15.2773 28.8405 17.5898 29.7983 20.0009 29.7983V26.1618Z" 
    fill="currentColor"/>
</svg>