<svg 
    width="86" 
    height="61" 
    viewBox="0 0 86 61" 
    fill="none" 
    xmlns="http://www.w3.org/2000/svg"
>
  <g clip-path="url(#clip0_98_207)">
    <mask id="mask0_98_207" style="mask-type:luminance" maskUnits="userSpaceOnUse" x="0" y="0" width="86" height="61">
      <path d="M0 0.206055H86V60.2061H0V0.206055Z" fill="white"/>
    </mask>
    <g mask="url(#mask0_98_207)">
      <path fill-rule="evenodd" clip-rule="evenodd" d="M43 0.206055C31.5333 0.206055 24.3667 6.87272 21.5 20.2061C25.8 13.5394 30.8167 11.0394 36.55 12.7061C39.8212 13.6561 42.1591 16.4172 44.7471 19.4709C48.9627 24.4468 53.8424 30.2061 64.5 30.2061C75.9667 30.2061 83.1333 23.5394 86 10.2061C81.7 16.8727 76.6833 19.3727 70.95 17.7061C67.6788 16.7561 65.3409 13.9949 62.7529 10.9412C58.5373 5.96531 53.6576 0.206055 43 0.206055ZM21.5 30.2061C10.0333 30.2061 2.86667 36.8727 0 50.2061C4.3 43.5394 9.31667 41.0394 15.05 42.7061C18.3212 43.6579 20.6591 46.4172 23.2471 49.4709C27.4627 54.4468 32.3424 60.2061 43 60.2061C54.4667 60.2061 61.6333 53.5394 64.5 40.2061C60.2 46.8727 55.1833 49.3727 49.45 47.7061C46.1788 46.7561 43.8409 43.9949 41.2529 40.9412C37.0373 35.9653 32.1576 30.2061 21.5 30.2061Z" fill="#38BDF8"/>
    </g>
  </g>
  <defs>
    <clipPath id="clip0_98_207">
      <rect width="86" height="60" fill="white" transform="translate(0 0.206055)"/>
    </clipPath>
  </defs>
</svg>