<svg 
    width="86" height="91" viewBox="0 0 86 91" fill="none" xmlns="http://www.w3.org/2000/svg">
  <g clip-path="url(#clip0_98_201)">
    <path d="M6.71875 0.206055H79.2812C82.992 0.206055 86 3.35395 86 7.2373V83.1748C86 87.0582 82.992 90.2061 79.2812 90.2061H6.71875C3.00798 90.2061 0 87.0582 0 83.1748V7.2373C0 3.35395 3.00798 0.206055 6.71875 0.206055Z" fill="#3178C6"/>
    <path d="M50.5646 70.6856V80.3957C52.0737 81.205 53.8585 81.8118 55.9188 82.2164C57.9791 82.6211 60.1506 82.8232 62.4336 82.8232C64.6582 82.8232 66.7719 82.6007 68.7741 82.1556C70.7763 81.7105 72.5323 80.9772 74.041 79.9559C75.55 78.9343 76.7446 77.599 77.6251 75.9502C78.5052 74.3017 78.9453 72.2637 78.9453 69.8362C78.9453 68.0763 78.6937 66.5336 78.1908 65.2086C77.6934 63.8925 76.9539 62.6914 76.0143 61.6736C75.0666 60.6418 73.9298 59.7164 72.6048 58.8969C71.2796 58.0778 69.785 57.304 68.1211 56.5759C66.9023 56.0497 65.8095 55.5392 64.842 55.0435C63.8748 54.5478 63.0524 54.0422 62.3755 53.5261C61.6983 53.0104 61.1759 52.4641 60.8084 51.8875C60.4409 51.3109 60.2571 50.6588 60.2571 49.9304C60.2571 49.2627 60.4214 48.6612 60.7503 48.1251C61.0791 47.5889 61.5438 47.1288 62.1434 46.7445C62.743 46.3599 63.4781 46.0618 64.3488 45.8491C65.2192 45.6367 66.1867 45.5305 67.2507 45.5305C68.0247 45.5305 68.842 45.5914 69.7027 45.7127C70.5637 45.8339 71.4294 46.021 72.3001 46.2741C73.1681 46.5259 74.0168 46.8454 74.8391 47.23C75.6365 47.5998 76.3992 48.0467 77.1171 48.5649V39.4921C75.7049 38.9257 74.1619 38.506 72.4886 38.2328C70.8153 37.9596 68.8951 37.8232 66.7283 37.8232C64.5228 37.8232 62.4337 38.0711 60.4604 38.5668C58.4871 39.0621 56.7506 39.8359 55.2513 40.8878C53.752 41.94 52.5672 43.2802 51.6964 44.9086C50.826 46.5371 50.3906 48.484 50.3906 50.7498C50.3906 53.6425 51.1885 56.1105 52.7849 58.1537C54.3809 60.1967 56.8037 61.9264 60.0539 63.3425C61.2537 63.8538 62.4437 64.3901 63.6232 64.9509C64.7261 65.4768 65.6788 66.0228 66.4817 66.5891C67.2846 67.1555 67.9182 67.7725 68.3824 68.4401C68.8467 69.1077 69.0788 69.8664 69.0788 70.7161C69.0827 71.3277 68.9325 71.9295 68.6435 72.4609C68.3535 72.9967 67.9131 73.4622 67.3232 73.8566C66.7333 74.2511 65.9979 74.5594 65.1178 74.782C64.2376 75.0045 63.2073 75.1159 62.0272 75.1159C60.0152 75.1159 58.0228 74.7468 56.0495 74.0082C54.0759 73.2699 52.2477 72.1625 50.5646 70.6856ZM35.0994 46.5216H47.0312V38.5264H13.7734V46.5216H25.6471V82.1201H35.0994V46.5216Z" fill="white"/>
  </g>
  <defs>
    <clipPath id="clip0_98_201">
      <rect width="86" height="90" fill="white" transform="translate(0 0.206055)"/>
    </clipPath>
  </defs>
</svg>