<svg xmlns="http://www.w3.org/2000/svg" xmlns:xlink="http://www.w3.org/1999/xlink" version="1.1" width="1000" height="1000" viewBox="0 0 1000 1000" xml:space="preserve">
<rect x="0" y="0" width="100%" height="100%" fill="rgba(0,0,0,0)"/>
<g transform="matrix(32.4675 0 0 32.4675 499.9995 499.9996)" id="162029">
<path style="stroke: none; stroke-width: 1; stroke-dasharray: none; stroke-linecap: butt; stroke-dashoffset: 0; stroke-linejoin: miter; stroke-miterlimit: 4; is-custom-font: none; font-file-url: none; fill: rgb(255,255,255); fill-rule: nonzero; opacity: 1;" vector-effect="non-scaling-stroke" transform=" translate(-16, -16)" d="M 28 10 H 22 V 6 C 22 5.46957 21.7893 4.96086 21.4142 4.58579 C 21.0391 4.21071 20.5304 4 20 4 H 12 C 11.4696 4 10.9609 4.21071 10.5858 4.58579 C 10.2107 4.96086 10 5.46957 10 6 V 10 H 4 C 3.46957 10 2.96086 10.2107 2.58579 10.5858 C 2.21071 10.9609 2 11.4696 2 12 V 26 C 2 26.5304 2.21071 27.0391 2.58579 27.4142 C 2.96086 27.7893 3.46957 28 4 28 H 28 C 28.5304 28 29.0391 27.7893 29.4142 27.4142 C 29.7893 27.0391 30 26.5304 30 26 V 12 C 30 11.4696 29.7893 10.9609 29.4142 10.5858 C 29.0391 10.2107 28.5304 10 28 10 Z M 12 6 H 20 V 10 H 12 V 6 Z M 4 26 V 12 H 28 V 26 H 4 Z" stroke-linecap="round"/>
</g>
<g transform="matrix(0.8098 0 0 0.8098 499.9906 596.1175)" id="188032">
<path style="stroke: none; stroke-width: 1; stroke-dasharray: none; stroke-linecap: butt; stroke-dashoffset: 0; stroke-linejoin: miter; stroke-miterlimit: 4; is-custom-font: none; font-file-url: none; fill: rgb(255,255,255); fill-rule: nonzero; opacity: 1;" vector-effect="non-scaling-stroke" transform=" translate(-320, -256)" d="M 416 31.94 C 416 21.75 408.1 0 384.1 0 c -13.98 0 -26.87 9.072 -30.89 23.18 l -128 448 c -0.8404 2.935 -1.241 5.892 -1.241 8.801 C 223.1 490.3 232 512 256 512 c 13.92 0 26.73 -9.157 30.75 -23.22 l 128 -448 C 415.6 37.81 416 34.85 416 31.94 z M 176 143.1 c 0 -18.28 -14.95 -32 -32 -32 c -8.188 0 -16.38 3.125 -22.62 9.376 l -112 112 C 3.125 239.6 0 247.8 0 255.1 S 3.125 272.4 9.375 278.6 l 112 112 C 127.6 396.9 135.8 399.1 144 399.1 c 17.05 0 32 -13.73 32 -32 c 0 -8.188 -3.125 -16.38 -9.375 -22.63 L 77.25 255.1 l 89.38 -89.38 C 172.9 160.3 176 152.2 176 143.1 z M 640 255.1 c 0 -8.188 -3.125 -16.38 -9.375 -22.63 l -112 -112 C 512.4 115.1 504.2 111.1 496 111.1 c -17.05 0 -32 13.73 -32 32 c 0 8.188 3.125 16.38 9.375 22.63 l 89.38 89.38 l -89.38 89.38 C 467.1 351.6 464 359.8 464 367.1 c 0 18.28 14.95 32 32 32 c 8.188 0 16.38 -3.125 22.62 -9.376 l 112 -112 C 636.9 272.4 640 264.2 640 255.1 z" stroke-linecap="round"/>
</g>
</svg>